# xmcd
#
# Track frame offsets:
#	150
#	15379
#	37073
#	60164
#	75030
#	85644
#	108410
#	123566
#	141223
#	152929
#	180826
#
# Disc length: 3571 seconds
#
# Revision: 1
# Processed by: cddbd v1.5.2PL0 Copyright (c) Steve Scherf et al.
# Submitted via: audiograbber 1.83.01
#
DISCID=750df10b
DTITLE=A Tribute to Johnny Cash - A tribute to Johnny Cash Live-Konzert
DYEAR=2009
DGENRE=
TTITLE0=Big River
TTITLE1=Don´t Take Your Guns To Town
TTITLE2=Thirteen
TTITLE3=Folsom Prison
TTITLE4=Help
TTITLE5=Ghostriders
TTITLE6=Wayfaring Stranger
TTITLE7=Redamption Song
TTITLE8=Understand Your Man
TTITLE9=Ring Of Fire
TTITLE10=Data
EXTD=Schauspielhaus Bochum
EXTT0=
EXTT1=
EXTT2=
EXTT3=
EXTT4=
EXTT5=
EXTT6=
EXTT7=
EXTT8=
EXTT9=
EXTT10=
PLAYORDER=
